<mxfile host="app.diagrams.net" modified="2024-06-19T04:37:13.451Z" agent="Mozilla/5.0 (Macintosh; Intel Mac OS X 10_15_7) AppleWebKit/537.36 (KHTML, like Gecko) Chrome/121.0.0.0 Safari/537.36" version="24.4.9" etag="7f6zLIs6AromEk-QHh4K" type="github">
  <diagram name="Page-1" id="OXv06mgVnUI8Hn0mGXbs">
    <mxGraphModel>
      <root>
        <mxCell id="0" />
        <mxCell id="1" parent="0" />
      </root>
    </mxGraphModel>
  </diagram>
</mxfile>
